<svg xmlns="http://www.w3.org/2000/svg" width="48" height="48" viewBox="0 0 48 48" fill="none">
  <defs>
    <linearGradient id="bg" x1="4" y1="4" x2="44" y2="44" gradientUnits="userSpaceOnUse">
      <stop stop-color="#38BDF8"/>
      <stop offset="0.55" stop-color="#2563EB"/>
      <stop offset="1" stop-color="#1E3A8A"/>
    </linearGradient>
    <linearGradient id="spark" x1="30" y1="6" x2="44" y2="20" gradientUnits="userSpaceOnUse">
      <stop stop-color="#FDE68A"/>
      <stop offset="1" stop-color="#F59E0B"/>
    </linearGradient>
  </defs>
  <rect x="2" y="2" width="44" height="44" rx="13" fill="url(#bg)"/>
  <rect x="2" y="2" width="44" height="19" rx="13" fill="#ffffff" opacity="0.14"/>
  <path d="M16 13h9.4c3.7 0 6.2 1.9 6.2 5.1 0 2.1-1.2 3.6-3 4.3 2.3.6 3.8 2.2 3.8 4.7 0 3.5-2.7 5.6-6.8 5.6H16V13Zm8.7 7.8c1.5 0 2.4-.7 2.4-2 0-1.2-.9-1.9-2.4-1.9h-4v3.9h4Zm.5 8.2c1.6 0 2.6-.8 2.6-2.1 0-1.4-1-2.1-2.6-2.1h-4.5V29h4.5Z" fill="#ffffff"/>
  <circle cx="37.5" cy="11.5" r="3.4" fill="url(#spark)"/>
</svg>
